<svg xmlns="http://www.w3.org/2000/svg" xmlns:xlink="http://www.w3.org/1999/xlink" viewBox="0,0,256,256" width="24px" height="24px"><g fill="#808080" fill-rule="nonzero" stroke="none" stroke-width="1" stroke-linecap="butt" stroke-linejoin="miter" stroke-miterlimit="10" stroke-dasharray="" stroke-dashoffset="0" font-family="none" font-weight="none" font-size="none" text-anchor="none" style="mix-blend-mode: normal"><g transform="scale(8,8)"><path d="M23.90039,3.97266c-1.04697,0 -2.09503,0.40752 -2.9082,1.2207l-15.8125,15.81445l-1.45508,7.26758l7.26758,-1.45508l0.21484,-0.21289l15.59961,-15.59961c1.62636,-1.62636 1.62636,-4.1881 0,-5.81445c-0.81318,-0.81318 -1.85929,-1.2207 -2.90625,-1.2207zM23.90039,5.87695c0.50304,0 1.00537,0.24365 1.49219,0.73047c0.97364,0.97364 0.97364,2.01269 0,2.98633l-0.69336,0.69141l-2.98437,-2.98437l0.69141,-0.69336c0.48682,-0.48682 0.99111,-0.73047 1.49414,-0.73047zM20.30078,8.71484l2.98438,2.98438l-12.10937,12.11133c-0.65587,-1.29185 -1.69448,-2.33046 -2.98633,-2.98633zM6.9043,22.57617c1.16436,0.48853 2.03317,1.35505 2.52148,2.51953l-3.15039,0.63086z"></path></g></g></svg>